Coordinates
version=1
nRows=13
nColumns=40
inDegrees=yes

Units are S.I. units (second, meters, Newtons, ...)
If the header above contains a line with 'inDegrees', this indicates whether rotational values are in degrees (yes) or radians (no).

endheader
time	pelvis_tilt	pelvis_list	pelvis_rotation	pelvis_tx	pelvis_ty	pelvis_tz	hip_flexion_r	hip_adduction_r	hip_rotation_r	knee_angle_r	knee_angle_r_beta	ankle_angle_r	subtalar_angle_r	mtp_angle_r	hip_flexion_l	hip_adduction_l	hip_rotation_l	knee_angle_l	knee_angle_l_beta	ankle_angle_l	subtalar_angle_l	mtp_angle_l	lumbar_extension	lumbar_bending	lumbar_rotation	arm_flex_r	arm_add_r	arm_rot_r	elbow_flex_r	pro_sup_r	wrist_flex_r	wrist_dev_r	arm_flex_l	arm_add_l	arm_rot_l	elbow_flex_l	pro_sup_l	wrist_flex_l	wrist_dev_l
      4.12500000	      4.40267745	      2.17175317	      0.94939031	     -0.39304117	      0.87444901	     -0.76644097	     36.99126201	      3.76409383	      0.55221822	     69.32410779	      1.20993393	     22.78207919	      0.00000000	      0.00000000	     58.41334263	      4.41250840	      4.03663850	     15.00758039	      0.26193169	     -4.78763464	      0.00000000	      0.00000000	    -41.66894555	     -1.34990494	     -1.63108472	     89.88698126	    -12.38321063	     16.17522918	     51.47051568	     87.15183522	      0.00000000	      0.00000000	     89.89929280	     -7.32238233	     15.29725366	     49.00014970	     86.42158317	      0.00000000	      0.00000000
      4.13000000	      4.38789053	      2.22172206	      0.96726962	     -0.39283789	      0.87539058	     -0.76638587	     36.88847915	      3.74671092	      0.62868620	     69.12574202	      1.20647180	     22.74234236	      0.00000000	      0.00000000	     58.37295290	      4.45574430	      4.05178152	     15.01891435	      0.26212951	     -4.78252219	      0.00000000	      0.00000000	    -41.62670783	     -1.41465598	     -1.66167191	     89.88679760	    -12.41401613	     16.19339785	     51.47112555	     87.14982002	      0.00000000	      0.00000000	     89.89890275	     -7.32344603	     15.31599828	     48.96686469	     86.42535062	      0.00000000	      0.00000000
      4.13500000	      4.35525611	      2.23289776	      0.99327408	     -0.39262868	      0.87617454	     -0.76637700	     36.86403753	      3.74728750	      0.63696316	     69.07332200	      1.20555689	     22.72883674	      0.00000000	      0.00000000	     58.35591316	      4.47962913	      4.05198705	     15.02178253	      0.26217956	     -4.77500808	      0.00000000	      0.00000000	    -41.56863787	     -1.43333747	     -1.66698131	     89.88675858	    -12.41776360	     16.18021551	     51.50047481	     87.14784617	      0.00000000	      0.00000000	     89.89821558	     -7.32309118	     15.30220583	     48.99380075	     86.42461483	      0.00000000	      0.00000000
      4.14000000	      4.30901829	      2.29019172	      1.02980009	     -0.39243292	      0.87714166	     -0.76632817	     36.72889666	      3.72174945	      0.73072693	     68.72713418	      1.19951478	     22.62667631	      0.00000000	      0.00000000	     58.34740779	      4.54288566	      4.07815487	     15.02330643	      0.26220616	     -4.77497889	      0.00000000	      0.00000000	    -41.49644399	     -1.51169853	     -1.72998743	     89.88586422	    -12.45545821	     16.23192525	     51.47304031	     87.15104196	      0.00000000	      0.00000000	     89.89824806	     -7.31965545	     15.33073230	     48.95288898	     86.42911863	      0.00000000	      0.00000000
      4.14500000	      4.35280691	      2.32977255	      1.06026297	     -0.39219868	      0.87818024	     -0.76631714	     36.54646946	      3.70450831	      0.79651552	     68.51355902	      1.19578719	     22.54140995	      0.00000000	      0.00000000	     58.24096106	      4.59500150	      4.08837197	     15.02327789	      0.26220566	     -4.79748166	      0.00000000	      0.00000000	    -41.50742983	     -1.54966535	     -1.76087622	     89.88613793	    -12.49133277	     16.30820429	     51.46014627	     87.15320365	      0.00000000	      0.00000000	     89.89806591	     -7.31804373	     15.37169589	     48.89348561	     86.43634460	      0.00000000	      0.00000000
      4.15000000	      4.31807176	      2.35087315	      1.11292830	     -0.39199661	      0.87904583	     -0.76631004	     36.46213202	      3.69144073	      0.82615525	     68.31548611	      1.19233016	     22.48805197	      0.00000000	      0.00000000	     58.22482450	      4.65114839	      4.09317662	     15.01380446	      0.26204032	     -4.78919362	      0.00000000	      0.00000000	    -41.44444689	     -1.57514140	     -1.80129536	     89.88588274	    -12.52895004	     16.33522753	     51.46726352	     87.15177903	      0.00000000	      0.00000000	     89.89762304	     -7.32480162	     15.37536148	     48.88854754	     86.43773821	      0.00000000	      0.00000000
      4.15500000	      4.28528730	      2.36341767	      1.12885892	     -0.39178110	      0.87988489	     -0.76627754	     36.44040320	      3.68582356	      0.83090873	     68.26679144	      1.19148028	     22.47646200	      0.00000000	      0.00000000	     58.21070754	      4.67019997	      4.09316277	     15.01452732	      0.26205294	     -4.77732159	      0.00000000	      0.00000000	    -41.38589509	     -1.59789942	     -1.80220505	     89.88546420	    -12.52175730	     16.32779360	     51.50035501	     87.15169352	      0.00000000	      0.00000000	     89.89687776	     -7.32294609	     15.36105031	     48.91285590	     86.43666266	      0.00000000	      0.00000000
      4.16000000	      4.24478128	      2.42865841	      1.18346327	     -0.39157307	      0.88082375	     -0.76628473	     36.31038250	      3.62491960	      0.89768721	     67.93858073	      1.18575192	     22.39275145	      0.00000000	      0.00000000	     58.20128668	      4.75502338	      4.11543711	     15.01340138	      0.26203329	     -4.73301852	      0.00000000	      0.00000000	    -41.31220946	     -1.67089447	     -1.87909628	     89.88485330	    -12.57593689	     16.37723071	     51.47893455	     87.15653706	      0.00000000	      0.00000000	     89.89651253	     -7.32492587	     15.39343624	     48.84796019	     86.43940945	      0.00000000	      0.00000000
      4.16500000	      4.21980542	      2.44297106	      1.20244988	     -0.39136811	      0.88167071	     -0.76618281	     36.28081643	      3.62417610	      0.90191005	     67.88587078	      1.18483196	     22.37880854	      0.00000000	      0.00000000	     58.18268557	      4.76920624	      4.11387799	     15.01271285	      0.26202127	     -4.72245367	      0.00000000	      0.00000000	    -41.25919577	     -1.69623714	     -1.88770375	     89.88477175	    -12.57628283	     16.36954531	     51.50722781	     87.15561240	      0.00000000	      0.00000000	     89.89584606	     -7.32373470	     15.38169063	     48.87018780	     86.43870412	      0.00000000	      0.00000000
      4.17000000	      4.20904540	      2.48303118	      1.23116417	     -0.39109142	      0.88268128	     -0.76610388	     36.08762021	      3.60726842	      0.97084112	     67.50737797	      1.17822601	     22.25987205	      0.00000000	      0.00000000	     58.13937245	      4.80023852	      4.05800304	     14.99391826	      0.26169324	     -4.72898970	      0.00000000	      0.00000000	    -41.20655095	     -1.76376852	     -1.93859929	     89.88389130	    -12.60903383	     16.46107667	     51.45688594	     87.16503709	      0.00000000	      0.00000000	     89.89575493	     -7.34273161	     15.44525214	     48.77714272	     86.44771188	      0.00000000	      0.00000000
      4.17500000	      4.18225983	      2.49521695	      1.25002596	     -0.39089014	      0.88349938	     -0.76602105	     36.06437880	      3.60753943	      0.97543448	     67.46566628	      1.17749801	     22.24772682	      0.00000000	      0.00000000	     58.12303425	      4.82145874	      4.05812761	     14.99325473	      0.26168166	     -4.71575545	      0.00000000	      0.00000000	    -41.14691826	     -1.78927234	     -1.93800095	     89.88377220	    -12.60867952	     16.45219853	     51.48539028	     87.16411686	      0.00000000	      0.00000000	     89.89483451	     -7.34519559	     15.43382554	     48.80167872	     86.44727251	      0.00000000	      0.00000000
      4.18000000	      4.17084870	      2.57676774	      1.28214666	     -0.39065286	      0.88451824	     -0.76596528	     35.89247152	      3.55047044	      1.06852201	     67.12223850	      1.17150406	     22.13033320	      0.00000000	      0.00000000	     58.07393464	      4.89148246	      4.03289029	     14.97458267	      0.26135577	     -4.69601803	      0.00000000	      0.00000000	    -41.09996663	     -1.88794519	     -2.01946123	     89.88300848	    -12.64859128	     16.52259166	     51.43775550	     87.16997946	      0.00000000	      0.00000000	     89.89502730	     -7.35849752	     15.49302825	     48.72013734	     86.45461193	      0.00000000	      0.00000000
      4.18500000	      4.18104928	      2.62133141	      1.29534077	     -0.39040555	      0.88551167	     -0.76589225	     35.74616160	      3.52706500	      1.12650093	     66.90884412	      1.16777963	     22.04322588	      0.00000000	      0.00000000	     58.00483370	      4.93597496	      4.04271496	     14.96139568	      0.26112562	     -4.68938163	      0.00000000	      0.00000000	    -41.07450315	     -1.95100660	     -2.06328443	     89.88312918	    -12.65186127	     16.59707334	     51.41636218	     87.17582983	      0.00000000	      0.00000000	     89.89510332	     -7.38300074	     15.52322460	     48.66719569	     86.45877422	      0.00000000	      0.00000000
